<svg width="16" height="16" viewBox="0 0 16 16" fill="none" xmlns="http://www.w3.org/2000/svg">
<path d="M4.86675 14C4.44453 14 4.08341 13.8471 3.78341 13.5413C3.48341 13.236 3.33341 12.8722 3.33341 12.45V6.26667L2.11675 3.33333H1.33341C1.14453 3.33333 0.986304 3.26933 0.858748 3.14133C0.730748 3.01378 0.666748 2.85556 0.666748 2.66667C0.666748 2.47778 0.730748 2.31933 0.858748 2.19133C0.986304 2.06378 1.14453 2 1.33341 2H2.56675C2.70008 2 2.8223 2.03889 2.93341 2.11667C3.04453 2.19444 3.12786 2.29444 3.18341 2.41667L4.11675 4.66667H13.9667C14.2223 4.66667 14.4167 4.77222 14.5501 4.98333C14.6834 5.19444 14.689 5.41111 14.5667 5.63333L12.6667 9.35C13.2334 9.43889 13.7085 9.7 14.0921 10.1333C14.4752 10.5667 14.6667 11.0778 14.6667 11.6667C14.6667 12.3111 14.4419 12.8611 13.9921 13.3167C13.5419 13.7722 12.9945 14 12.3501 14C11.6945 14 11.1419 13.7722 10.6921 13.3167C10.2419 12.8611 10.0167 12.3111 10.0167 11.6667C10.0167 11.4444 10.0445 11.2389 10.1001 11.05C10.1556 10.8611 10.2334 10.6778 10.3334 10.5L8.15008 10.3L6.15008 13.3C6.00564 13.5222 5.81941 13.6944 5.59141 13.8167C5.36386 13.9389 5.1223 14 4.86675 14ZM4.88341 12.65C4.90564 12.65 4.95564 12.6222 5.03341 12.5667L6.65008 10.1667C6.10564 10.1111 5.67786 9.98044 5.36675 9.77467C5.05564 9.56933 4.8223 9.35556 4.66675 9.13333V12.4667C4.66675 12.5222 4.68897 12.5667 4.73341 12.6C4.77786 12.6333 4.82786 12.65 4.88341 12.65ZM12.3334 12.6667C12.6223 12.6667 12.8612 12.5693 13.0501 12.3747C13.239 12.1804 13.3334 11.9444 13.3334 11.6667C13.3334 11.3778 13.239 11.1389 13.0501 10.95C12.8612 10.7611 12.6223 10.6667 12.3334 10.6667C12.0556 10.6667 11.8196 10.7611 11.6254 10.95C11.4307 11.1389 11.3334 11.3778 11.3334 11.6667C11.3334 11.9444 11.4307 12.1804 11.6254 12.3747C11.8196 12.5693 12.0556 12.6667 12.3334 12.6667Z" fill="white"/>
</svg>
